<svg width="23" height="23" viewBox="0 0 23 23" fill="none" xmlns="http://www.w3.org/2000/svg">
<g id="confirm 2" clip-path="url(#clip0_375_26)">
<g id="Group">
<g id="Group_2">
<path id="Vector" d="M22.6343 4.85367L21.8855 4.10496C21.6503 3.86951 21.3366 3.73999 21.0017 3.73999C20.6669 3.73999 20.353 3.86951 20.1177 4.10496L9.59732 14.6252L3.02431 8.052C2.78905 7.81692 2.47518 7.68721 2.14031 7.68721C1.80563 7.68721 1.49195 7.81692 1.2565 8.052L0.507607 8.80052C0.27216 9.03634 0.142822 9.3504 0.142822 9.68489C0.142822 10.0196 0.27216 10.3334 0.507607 10.5689L7.92893 17.9898C7.93878 18.0038 7.94919 18.0168 7.96127 18.0287L8.71016 18.7651C8.94542 18.9996 9.25929 19.1169 9.59676 19.1169H9.60066C9.93571 19.1169 10.2496 18.9996 10.4845 18.7651L11.2336 18.0222C11.2456 18.0103 11.2559 18.0004 11.262 17.9904L22.6341 6.61943C23.1219 6.13274 23.1219 5.34092 22.6343 4.85367Z" fill="white"/>
</g>
</g>
</g>
<defs>
<clipPath id="clip0_375_26">
<rect width="22.8571" height="22.8571" fill="white" transform="translate(0.142822)"/>
</clipPath>
</defs>
</svg>
