<svg width="23" height="23" viewBox="0 0 23 23" fill="none" xmlns="http://www.w3.org/2000/svg">
<g id="phone-call 2" clip-path="url(#clip0_375_139)">
<g id="Group">
<g id="Group_2">
<path id="Vector" d="M18.2071 14.1593C17.7392 13.6721 17.1748 13.4116 16.5766 13.4116C15.9832 13.4116 15.414 13.6673 14.9267 14.1545L13.4023 15.6741C13.2769 15.6066 13.1514 15.5439 13.0308 15.4812C12.8572 15.3943 12.6931 15.3123 12.5532 15.2255C11.1253 14.3185 9.82759 13.1366 8.58296 11.6074C7.97994 10.8452 7.57471 10.2035 7.28043 9.55228C7.67601 9.19047 8.04265 8.81418 8.39964 8.45237C8.53471 8.31729 8.66979 8.17739 8.80487 8.04232C9.81794 7.02924 9.81794 5.71707 8.80487 4.704L7.48787 3.38701C7.33832 3.23746 7.18395 3.08308 7.03923 2.92871C6.74978 2.62961 6.44585 2.32087 6.13228 2.03142C5.66434 1.5683 5.10474 1.32227 4.51619 1.32227C3.92764 1.32227 3.35839 1.5683 2.87598 2.03142C2.87115 2.03624 2.87115 2.03624 2.86633 2.04107L1.22612 3.69575C0.608624 4.31324 0.256461 5.06581 0.179275 5.93898C0.0634947 7.34764 0.478372 8.65981 0.796767 9.51851C1.57828 11.6267 2.74573 13.5804 4.48725 15.6741C6.60023 18.1972 9.14256 20.1895 12.0467 21.5934C13.1563 22.1192 14.6373 22.7415 16.292 22.8477C16.3933 22.8525 16.4994 22.8573 16.5959 22.8573C17.7103 22.8573 18.6461 22.4569 19.3794 21.6609C19.3842 21.6513 19.3939 21.6464 19.3987 21.6368C19.6496 21.3329 19.939 21.0579 20.2429 20.7636C20.4504 20.5658 20.6626 20.3584 20.8701 20.1413C21.3477 19.6444 21.5985 19.0655 21.5985 18.4721C21.5985 17.8739 21.3429 17.2999 20.8556 16.8175L18.2071 14.1593ZM19.9342 19.2392C19.9294 19.2392 19.9294 19.244 19.9342 19.2392C19.7461 19.4418 19.5531 19.6251 19.3456 19.8277C19.0321 20.1268 18.7137 20.4404 18.4146 20.7926C17.9273 21.3136 17.3533 21.5596 16.6007 21.5596C16.5283 21.5596 16.4512 21.5596 16.3788 21.5548C14.946 21.4631 13.6146 20.9035 12.616 20.4259C9.88548 19.1041 7.48787 17.2275 5.4955 14.8492C3.85046 12.8665 2.75055 11.0333 2.0221 9.06504C1.57346 7.86382 1.40943 6.92794 1.4818 6.04512C1.53004 5.48069 1.74713 5.01275 2.14753 4.61234L3.79257 2.9673C4.02895 2.74539 4.27981 2.62479 4.52584 2.62479C4.82976 2.62479 5.07579 2.80811 5.23017 2.96248C5.23499 2.9673 5.23982 2.97213 5.24464 2.97695C5.53891 3.25193 5.81871 3.53655 6.11299 3.84048C6.26254 3.99485 6.41691 4.14922 6.57128 4.30842L7.88828 5.62541C8.39964 6.13677 8.39964 6.60954 7.88828 7.1209C7.74838 7.2608 7.6133 7.4007 7.4734 7.53578C7.06817 7.95066 6.68224 8.33659 6.26254 8.71287C6.25289 8.72252 6.24324 8.72735 6.23842 8.73699C5.82354 9.15187 5.90072 9.5571 5.98756 9.83208C5.99238 9.84655 5.99721 9.86102 6.00203 9.8755C6.34455 10.7053 6.82696 11.4868 7.56023 12.4178L7.56506 12.4227C8.89653 14.0629 10.3004 15.3413 11.8489 16.3206C12.0467 16.446 12.2493 16.5473 12.4423 16.6438C12.616 16.7306 12.78 16.8126 12.9199 16.8995C12.9392 16.9091 12.9585 16.9236 12.9778 16.9332C13.1418 17.0152 13.2962 17.0538 13.4554 17.0538C13.8558 17.0538 14.1066 16.803 14.1886 16.721L15.8385 15.0711C16.0025 14.9071 16.263 14.7093 16.5669 14.7093C16.866 14.7093 17.1121 14.8974 17.2616 15.0615C17.2664 15.0663 17.2664 15.0663 17.2713 15.0711L19.9294 17.7292C20.4263 18.2213 20.4263 18.7278 19.9342 19.2392Z" fill="white"/>
<path id="Vector_2" d="M12.4954 5.43721C13.7593 5.64947 14.9075 6.24767 15.8241 7.16426C16.7407 8.08085 17.334 9.22899 17.5511 10.4929C17.6042 10.8113 17.8792 11.0332 18.1927 11.0332C18.2313 11.0332 18.2651 11.0284 18.3037 11.0236C18.6607 10.9657 18.8971 10.628 18.8392 10.271C18.5787 8.74176 17.855 7.34757 16.7503 6.24284C15.6456 5.13811 14.2514 4.41449 12.7222 4.15398C12.3652 4.09609 12.0323 4.33248 11.9696 4.68464C11.9069 5.0368 12.1384 5.37932 12.4954 5.43721Z" fill="white"/>
<path id="Vector_3" d="M22.9735 10.0828C22.5441 7.56456 21.3574 5.27308 19.5338 3.44955C17.7103 1.62602 15.4188 0.439279 12.9006 0.00992883C12.5485 -0.0527852 12.2156 0.188423 12.1529 0.540586C12.095 0.897574 12.3314 1.23044 12.6884 1.29315C14.9364 1.67426 16.9867 2.7404 18.6172 4.36614C20.2478 5.99671 21.3091 8.04697 21.6902 10.295C21.7433 10.6134 22.0183 10.8353 22.3318 10.8353C22.3704 10.8353 22.4042 10.8305 22.4428 10.8257C22.795 10.7726 23.0362 10.4349 22.9735 10.0828Z" fill="white"/>
</g>
</g>
</g>
<defs>
<clipPath id="clip0_375_139">
<rect width="22.8571" height="22.8571" fill="white" transform="translate(0.142822)"/>
</clipPath>
</defs>
</svg>
