<svg width="23" height="23" viewBox="0 0 23 23" fill="none" xmlns="http://www.w3.org/2000/svg">
<g id="Group">
<path id="Vector" d="M17.0547 5.20361L17.7301 4.36368C18.6556 3.2156 18.468 1.53822 17.3098 0.618765L17.2673 0.583974C16.1118 -0.33548 14.4234 -0.149104 13.4979 1.00146L12.8251 1.8389L17.0547 5.20361Z" fill="white"/>
<path id="Vector_2" d="M12.9452 12.2634C12.9677 12.4671 13.0702 12.661 13.2428 12.8001C13.5905 13.076 14.0983 13.0213 14.3759 12.6759L19.0158 6.91065C19.2984 6.56026 19.2359 6.04587 18.8732 5.77252C18.523 5.5091 18.0203 5.58365 17.7451 5.9241L17.2924 6.48571L16.517 5.86943L16.5195 5.86695L12.2923 2.49976L1.47681 15.9312L5.70647 19.2959L15.514 7.11939L16.2894 7.73567L13.1178 11.6744C12.9777 11.8459 12.9227 12.0596 12.9452 12.2634Z" fill="white"/>
<path id="Vector_3" d="M5.00355 19.9172L1.01902 16.7463C0.953984 16.9675 0.921468 17.1613 0.921468 17.1613L0.00850154 21.5051C-0.0565317 21.8183 0.263632 22.0742 0.556281 21.94L4.62336 20.1011C4.62086 20.1011 4.80095 20.0266 5.00355 19.9172Z" fill="white"/>
<path id="Vector_4" d="M22.2774 20.6953C22.2424 20.6953 22.2099 20.6977 22.1749 20.7027L16.0292 21.4929C15.7141 21.5327 15.494 21.1898 15.664 20.9214C15.7566 20.7797 15.8466 20.6356 15.9367 20.4915C16.1743 20.1088 15.8566 19.5994 15.4164 19.5994C15.3864 19.5994 15.3564 19.6019 15.3239 19.6068L7.26975 20.8096L6.30676 20.9537L3.68041 21.3464C3.38276 21.3911 3.18266 21.642 3.20767 21.9428C3.21768 22.0769 3.27271 22.2037 3.36025 22.2981C3.4628 22.4099 3.60538 22.4721 3.76046 22.4721C3.79047 22.4721 3.82049 22.4696 3.853 22.4646L13.4529 21.0308C13.7806 20.9811 14.0057 21.3488 13.8131 21.6172C13.7506 21.7017 13.688 21.7887 13.6255 21.8732C13.4529 22.1068 13.4929 22.4969 13.693 22.6982C13.7956 22.8026 13.9256 22.8572 14.0632 22.8572C14.0783 22.8572 14.0957 22.8572 14.1107 22.8547H14.1132H14.1158L22.4025 21.8061H22.405H22.4075C22.5501 21.7837 22.6751 21.7017 22.7577 21.5749C22.8478 21.4358 22.8802 21.2643 22.8403 21.1103C22.7752 20.8592 22.5551 20.6953 22.2774 20.6953Z" fill="white"/>
</g>
</svg>
