<svg width="25" height="25" viewBox="0 0 25 25" fill="none" xmlns="http://www.w3.org/2000/svg">
<g id="Map icon">
<g id="Group">
<g id="Group_2">
<path id="Vector" d="M12.5 0C7.50761 0 3.44598 4.06162 3.44598 9.054C3.44598 15.2497 11.5485 24.3454 11.8934 24.7295C12.2175 25.0904 12.7832 25.0898 13.1066 24.7295C13.4516 24.3454 21.5541 15.2497 21.5541 9.054C21.554 4.06162 17.4924 0 12.5 0ZM12.5 13.6093C9.98822 13.6093 7.94476 11.5658 7.94476 9.054C7.94476 6.54219 9.98827 4.49873 12.5 4.49873C15.0118 4.49873 17.0553 6.54224 17.0553 9.05405C17.0553 11.5659 15.0118 13.6093 12.5 13.6093Z" fill="#FECD4C"/>
</g>
</g>
</g>
</svg>
