<svg width="70" height="70" viewBox="0 0 70 70" fill="none" xmlns="http://www.w3.org/2000/svg">
<g id="confirm ">
<g id="Group">
<g id="Group_2">
<path id="Vector" d="M68.88 14.8643L66.5871 12.5713C65.8666 11.8503 64.9059 11.4536 63.8804 11.4536C62.8549 11.4536 61.8937 11.8503 61.1732 12.5713L28.9544 44.7895L8.82455 24.6591C8.10406 23.9392 7.14285 23.542 6.11732 23.542C5.09236 23.542 4.13171 23.9392 3.41065 24.6591L1.11715 26.9515C0.396098 27.6737 0 28.6355 0 29.6599C0 30.6848 0.396098 31.6461 1.11715 32.3671L23.845 55.0938C23.8751 55.1365 23.907 55.1763 23.944 55.2127L26.2375 57.4681C26.958 58.1863 27.9192 58.5454 28.9527 58.5454H28.9646C29.9907 58.5454 30.952 58.1863 31.6713 57.4681L33.9654 55.1928C34.0024 55.1564 34.0337 55.1262 34.0524 55.0955L68.8794 20.2719C70.3733 18.7814 70.3733 16.3565 68.88 14.8643Z" fill="#31AA52"/>
</g>
</g>
</g>
</svg>
