<svg width="50" height="50" viewBox="0 0 50 50" fill="none" xmlns="http://www.w3.org/2000/svg">
<g id="light-bulb 1">
<g id="Group">
<g id="Group_2">
<g id="Group_3">
<path id="Vector" d="M25.0001 4.99995C25.4603 4.99995 25.8334 4.62683 25.8334 4.16662V0.833325C25.8334 0.373121 25.4603 0 25.0001 0C24.5399 0 24.1667 0.373121 24.1667 0.833325V4.16662C24.1667 4.62683 24.5398 4.99995 25.0001 4.99995Z" fill="#FECD4C"/>
<path id="Vector_2" d="M14.6952 3.81847L16.3618 6.70428C16.5893 7.10438 17.0981 7.24427 17.4982 7.01677C17.8983 6.78928 18.0382 6.28053 17.8107 5.88043C17.8089 5.8772 17.807 5.87408 17.8051 5.87085L16.1385 2.98505C15.911 2.58495 15.4022 2.44505 15.0021 2.67255C14.602 2.90005 14.4621 3.40879 14.6896 3.80889C14.6914 3.81212 14.6933 3.81535 14.6952 3.81847Z" fill="#FECD4C"/>
<path id="Vector_3" d="M7.97563 11.1329C7.97876 11.1348 7.98199 11.1365 7.98521 11.1384L10.871 12.8051C11.2681 13.0378 11.7786 12.9047 12.0113 12.5076C12.244 12.1105 12.1109 11.6 11.7138 11.3673C11.7107 11.3654 11.7075 11.3636 11.7042 11.3618L8.81843 9.6951C8.42136 9.4624 7.91084 9.59552 7.67813 9.9926C7.44543 10.3896 7.57855 10.9002 7.97563 11.1329Z" fill="#FECD4C"/>
<path id="Vector_4" d="M10.0002 19.9998C10.0002 19.5396 9.62707 19.1665 9.16687 19.1665H5.83357C5.37337 19.1665 5.00024 19.5396 5.00024 19.9998C5.00024 20.46 5.37337 20.8332 5.83357 20.8332H9.16687C9.62707 20.8332 10.0002 20.46 10.0002 19.9998Z" fill="#FECD4C"/>
<path id="Vector_5" d="M10.8806 27.1891C10.8774 27.1909 10.8742 27.1928 10.871 27.1947L7.98516 28.8613C7.58506 29.0887 7.44506 29.5975 7.67245 29.9976C7.89984 30.3977 8.40859 30.5376 8.80869 30.3103C8.81192 30.3084 8.81515 30.3065 8.81838 30.3046L11.7042 28.638C12.1043 28.4106 12.2443 27.9019 12.0169 27.5018C11.7895 27.1017 11.2807 26.9617 10.8806 27.1891Z" fill="#FECD4C"/>
<path id="Vector_6" d="M42.0245 28.867C42.0213 28.8651 42.0181 28.8632 42.0148 28.8613L39.129 27.1947C38.7321 26.9619 38.2214 27.095 37.9886 27.492C37.7558 27.889 37.889 28.3996 38.2859 28.6324C38.2892 28.6343 38.2924 28.6361 38.2956 28.638L41.1814 30.3047C41.5784 30.5375 42.089 30.4043 42.3218 30.0074C42.5546 29.6103 42.4215 29.0998 42.0245 28.867Z" fill="#FECD4C"/>
<path id="Vector_7" d="M44.1666 19.1665H40.8333C40.3731 19.1665 40 19.5396 40 19.9998C40 20.46 40.3731 20.8332 40.8333 20.8332H44.1666C44.6268 20.8332 45 20.46 45 19.9998C45 19.5396 44.6268 19.1665 44.1666 19.1665Z" fill="#FECD4C"/>
<path id="Vector_8" d="M38.7132 12.9163C38.8594 12.9163 39.0032 12.8778 39.1298 12.8046L42.0156 11.138C42.4157 10.9105 42.5556 10.4017 42.3281 10.0016C42.1006 9.60155 41.5919 9.46165 41.1918 9.68915C41.1886 9.69092 41.1854 9.6928 41.1822 9.69467L38.2964 11.3613C37.8979 11.5914 37.7613 12.1011 37.9914 12.4996C38.1404 12.7575 38.4155 12.9163 38.7132 12.9163Z" fill="#FECD4C"/>
<path id="Vector_9" d="M32.4988 7.00961C32.4991 7.00982 32.4994 7.01002 32.4997 7.01013C32.8984 7.24002 33.4081 7.10325 33.638 6.70451C33.638 6.7044 33.6381 6.7043 33.6381 6.7043L35.3047 3.81849C35.5376 3.42152 35.4044 2.9109 35.0075 2.67809C34.6105 2.44528 34.0998 2.5784 33.867 2.97538C33.8652 2.97861 33.8633 2.98184 33.8614 2.98507L32.1947 5.87087C31.9643 6.2693 32.1005 6.77909 32.4988 7.00961Z" fill="#FECD4C"/>
<path id="Vector_10" d="M26.6667 33.333C27.1269 33.333 27.5 32.9599 27.5 32.4997V23.3331H29.1666C31.0076 23.3331 32.4999 21.8407 32.4999 19.9998C32.4999 18.1589 31.0076 16.6665 29.1666 16.6665C27.3257 16.6665 25.8334 18.1589 25.8334 19.9998V21.6665H24.1667V19.9998C24.1667 18.1589 22.6743 16.6665 20.8334 16.6665C18.9925 16.6665 17.5001 18.1589 17.5001 19.9998C17.5001 21.8407 18.9925 23.3331 20.8334 23.3331H22.5001V32.4997C22.5001 32.9599 22.8732 33.333 23.3334 33.333C23.7936 33.333 24.1667 32.9599 24.1667 32.4997V23.3331H25.8334V32.4997C25.8334 32.9599 26.2064 33.333 26.6667 33.333ZM27.5 19.9998C27.5 19.0793 28.2461 18.3332 29.1666 18.3332C30.0872 18.3332 30.8333 19.0793 30.8333 19.9998C30.8333 20.9203 30.0872 21.6665 29.1666 21.6665H27.5V19.9998ZM22.5001 21.6665H20.8334C19.9129 21.6665 19.1668 20.9203 19.1668 19.9998C19.1668 19.0793 19.9129 18.3332 20.8334 18.3332C21.7539 18.3332 22.5001 19.0793 22.5001 19.9998V21.6665Z" fill="#FECD4C"/>
<path id="Vector_11" d="M25.6475 6.68214C18.2923 6.32881 12.0432 12.0049 11.6898 19.3601C11.4874 23.5718 13.2892 27.6309 16.5484 30.3061C17.1358 30.7662 17.4853 31.4659 17.5001 32.2119V34.166C17.5045 35.2216 18.1714 36.1608 19.1667 36.5127V37.4993C19.1689 38.1163 19.4006 38.7105 19.8167 39.166C18.9501 40.108 18.9501 41.5572 19.8167 42.4993C18.8903 43.5149 18.9626 45.0892 19.9782 46.0157C20.4395 46.4365 21.0422 46.6686 21.6667 46.6659C22.1153 46.6777 22.4885 46.3235 22.5001 45.875C22.5047 45.7 22.4526 45.5281 22.3517 45.3851C22.3254 45.3341 22.2941 45.2858 22.2584 45.2409C22.1898 45.1782 22.1116 45.127 22.0267 45.0892C22.0025 45.0767 21.9784 45.0667 21.9534 45.0567C21.869 45.026 21.7806 45.0083 21.6909 45.0042C21.6825 45.0042 21.675 44.9992 21.6667 44.9992C21.2065 44.9992 20.8334 44.6261 20.8334 44.1659C20.8334 43.7057 21.2065 43.3326 21.6667 43.3326H25C25.4602 43.3326 25.8333 42.9595 25.8333 42.4993C25.8333 42.0391 25.4602 41.6659 25 41.6659H21.6667C21.2065 41.6659 20.8334 41.2928 20.8334 40.8326C20.8334 40.3724 21.2065 39.9993 21.6667 39.9993H25C25.4602 39.9993 25.8333 39.6262 25.8333 39.166C25.8333 38.7058 25.4602 38.3326 25 38.3326H21.6667C21.2065 38.3326 20.8334 37.9595 20.8334 37.4993V36.666H25C25.4602 36.666 25.8333 36.2929 25.8333 35.8327C25.8333 35.3725 25.4602 34.9993 25 34.9993H20.0001C19.5399 34.9993 19.1667 34.6262 19.1667 34.166V32.2119C19.1531 30.9658 18.5792 29.7921 17.6043 29.0161C12.6264 24.9251 11.9075 17.5733 15.9985 12.5954C18.3387 9.74795 21.8868 8.1738 25.5683 8.34963C31.7253 8.71587 36.5616 13.7618 36.6666 19.9287C36.6964 23.4757 35.1016 26.8414 32.3374 29.0644C31.3697 29.8615 30.8164 31.0549 30.8333 32.3085V34.166C30.8333 34.6262 30.4602 34.9993 30 34.9993H27.5C27.0398 34.9993 26.6667 35.3725 26.6667 35.8327C26.6667 36.2929 27.0398 36.666 27.5 36.666H29.1666V37.4993C29.1666 37.9595 28.7935 38.3326 28.3333 38.3326H27.5C27.0398 38.3326 26.6667 38.7058 26.6667 39.166C26.6667 39.6262 27.0398 39.9993 27.5 39.9993H28.3333C28.7935 39.9993 29.1666 40.3724 29.1666 40.8326C29.1666 41.2928 28.7935 41.6659 28.3333 41.6659H27.5C27.0398 41.6659 26.6667 42.0391 26.6667 42.4993C26.6667 42.9595 27.0398 43.3326 27.5 43.3326H28.3333C28.7935 43.3326 29.1666 43.7057 29.1666 44.1659C29.1666 44.6261 28.7935 44.9992 28.3333 44.9992H24.1667C23.7065 44.9992 23.3334 45.3724 23.3334 45.8326C23.3334 46.2928 23.7065 46.6659 24.1667 46.6659H27.3575C26.8974 47.9677 25.4691 48.6499 24.1673 48.1898C23.7688 48.049 23.4125 47.8093 23.1317 47.4934C22.8257 47.1496 22.2988 47.119 21.955 47.4251C21.6113 47.7311 21.5807 48.258 21.8867 48.6017C23.4108 50.3191 26.0384 50.4759 27.7558 48.9519C28.4652 48.3224 28.938 47.4694 29.0958 46.5342C30.4009 46.1263 31.1282 44.7377 30.7204 43.4326C30.612 43.0858 30.4286 42.7672 30.1833 42.4993C31.0499 41.5572 31.0499 40.108 30.1833 39.166C30.5994 38.7105 30.8311 38.1163 30.8333 37.4993V36.5127C31.8286 36.1608 32.4956 35.2216 32.4999 34.166V32.3085C32.4888 31.5599 32.8132 30.8454 33.3841 30.3611C36.5449 27.8199 38.3684 23.9717 38.3332 19.9162C38.2128 12.8675 32.6847 7.10058 25.6475 6.68214Z" fill="#FECD4C"/>
</g>
</g>
</g>
</g>
</svg>
