<svg width="35" height="35" viewBox="0 0 35 35" fill="none" xmlns="http://www.w3.org/2000/svg">
<g id="picture 1">
<g id="Group">
<g id="Group_2">
<path id="Vector" d="M31.25 5L3.75 5C1.67893 5 0 6.67893 0 8.75L0 26.25C0 28.321 1.67893 30 3.75 30L31.25 30C33.3211 30 35 28.321 35 26.25V8.75C35 6.67893 33.3211 5 31.25 5ZM32.5 26.25C32.5 26.9403 31.9403 27.5 31.2499 27.5L3.75 27.5C3.05962 27.5 2.49997 26.9403 2.49997 26.25V25.5175L7.49999 20.5174L11.6163 24.6337C12.1044 25.1217 12.8957 25.1217 13.3838 24.6337L23.75 14.2675L32.5 23.0175V26.25H32.5ZM32.5 19.4825L24.6337 11.6163C24.1457 11.1282 23.3544 11.1282 22.8663 11.6163L12.5 21.9824L8.38373 17.8661C7.89565 17.3781 7.10434 17.3781 6.61625 17.8661L2.49997 21.9824L2.49997 8.75C2.49997 8.05962 3.05962 7.49997 3.75 7.49997L31.25 7.49997C31.9404 7.49997 32.5 8.05962 32.5 8.75V19.4825H32.5Z" fill="black" fill-opacity="0.5"/>
</g>
</g>
<g id="Group_3">
<g id="Group_4">
<path id="Vector_2" d="M11.25 10C9.17893 10 7.5 11.6789 7.5 13.75C7.5 15.8211 9.17893 17.5 11.25 17.5C13.3211 17.5 15 15.8211 15 13.75C15 11.6789 13.3211 10 11.25 10ZM11.25 15C10.5596 15 9.99998 14.4404 9.99998 13.75C9.99998 13.0596 10.5596 12.5 11.25 12.5C11.9404 12.5 12.5 13.0596 12.5 13.75C12.5 14.4404 11.9404 15 11.25 15Z" fill="black" fill-opacity="0.5"/>
</g>
</g>
</g>
</svg>
