<svg width="23" height="23" viewBox="0 0 23 23" fill="none" xmlns="http://www.w3.org/2000/svg">
<g id="view 1" clip-path="url(#clip0_55_489)">
<g id="Group">
<g id="Group_2">
<path id="Vector" d="M22.7119 10.9841C22.5077 10.7048 17.6424 4.14453 11.4285 4.14453C5.21456 4.14453 0.349019 10.7048 0.145045 10.9838C-0.0483483 11.2488 -0.0483483 11.6083 0.145045 11.8733C0.349019 12.1526 5.21456 18.7128 11.4285 18.7128C17.6424 18.7128 22.5077 12.1525 22.7119 11.8735C22.9055 11.6085 22.9055 11.2488 22.7119 10.9841ZM11.4285 17.2058C6.85126 17.2058 2.88693 12.8516 1.7134 11.4282C2.88541 10.0035 6.84144 5.65159 11.4285 5.65159C16.0054 5.65159 19.9695 10.005 21.1435 11.4292C19.9715 12.8538 16.0155 17.2058 11.4285 17.2058Z" fill="white"/>
</g>
</g>
<g id="Group_3">
<g id="Group_4">
<path id="Vector_2" d="M11.4284 6.90723C8.93549 6.90723 6.90723 8.93549 6.90723 11.4284C6.90723 13.9214 8.93549 15.9497 11.4284 15.9497C13.9214 15.9497 15.9497 13.9214 15.9497 11.4284C15.9497 8.93549 13.9214 6.90723 11.4284 6.90723ZM11.4284 14.4426C9.76638 14.4426 8.41433 13.0905 8.41433 11.4284C8.41433 9.76643 9.76643 8.41433 11.4284 8.41433C13.0905 8.41433 14.4426 9.76643 14.4426 11.4284C14.4426 13.0905 13.0905 14.4426 11.4284 14.4426Z" fill="white"/>
</g>
</g>
</g>
<defs>
<clipPath id="clip0_55_489">
<rect width="22.8571" height="22.8571" fill="white"/>
</clipPath>
</defs>
</svg>
